# xmcd CD database file
#
# Track frame offsets:
#	150
#	3947
#	47277
#	100947
#	134612
#	181017
#	213717
#	252965
#	275437
#	305800
#
# Disc length: 4196 seconds
#
# Revision: 0
# Processed by: cddbd v1.5.1PL0 Copyright (c) Steve Scherf et al.
# Submitted via: CDex 1.51
#
DISCID=8810620a
DTITLE=Mike Wade feat. Standard Time Quintet - Be Truthful
DYEAR=1996
DGENRE=Jazz
TTITLE0=Introduction: Ode To Bontuku
TTITLE1=Attitude
TTITLE2=Be Truthful
TTITLE3=Sometimes It Just Happens
TTITLE4=Tears For A Meloncholy Smile
TTITLE5=Blues For Shorty Bop
TTITLE6=Samba For Bill
TTITLE7=Big Shoat
TTITLE8=This Is For All You Rythm Guys
TTITLE9=Ode To Bontuku
EXTD=YEAR: 1996
EXTT0=
EXTT1=
EXTT2=
EXTT3=
EXTT4=
EXTT5=
EXTT6=
EXTT7=
EXTT8=
EXTT9=
PLAYORDER=
